<svg data-name="Component 4 – 1" xmlns="http://www.w3.org/2000/svg" width="30.937" height="30.796"><path data-name="Path 6" d="M18.075 12.885l12.01 7.654a15.47 15.47 0 10-29.23 0l12-7.654a5.3 5.3 0 015.22 0z" fill="#0054a4"/><path data-name="Path 7" d="M17.379 16.749l8.426 10.162a15.467 15.467 0 002.457-2.85l-10-9.08a4.357 4.357 0 00-5.724 0l-10 9.078a15.537 15.537 0 002.459 2.85l8.426-10.161a2.476 2.476 0 013.956.001z" fill="#0054a4"/><path data-name="Path 8" d="M14.24 22.362a1.166 1.166 0 112.332 0l.839 8.434a15.392 15.392 0 006.354-2.319l-6.264-9.7c-1.152-1.784-3.04-1.784-4.194 0l-6.261 9.7a15.358 15.358 0 006.353 2.32z" fill="#0054a4"/></svg>