<?xml version="1.0" standalone="no"?>
<!DOCTYPE svg PUBLIC "-//W3C//DTD SVG 20010904//EN"
 "http://www.w3.org/TR/2001/REC-SVG-20010904/DTD/svg10.dtd">
<svg version="1.0" xmlns="http://www.w3.org/2000/svg"
 width="512.000000pt" height="512.000000pt" viewBox="0 0 512.000000 512.000000"
 preserveAspectRatio="xMidYMid meet">
<metadata>
Created by potrace 1.11, written by Peter Selinger 2001-2013
</metadata>
<g transform="translate(0.000000,512.000000) scale(0.100000,-0.100000)"
fill="#000000" stroke="none">
<path d="M2360 5114 c-19 -2 -73 -9 -120 -15 -455 -55 -927 -254 -1289 -543
-531 -424 -878 -1067 -942 -1746 -14 -147 -6 -438 15 -585 25 -172 93 -444
116 -469 5 -5 361 214 827 510 1292 818 1212 769 1321 806 93 31 104 32 262
32 185 1 243 -10 365 -68 39 -18 511 -312 1051 -654 539 -342 988 -624 997
-627 17 -7 37 48 83 235 98 399 88 872 -28 1275 -92 323 -264 653 -475 913
-93 115 -261 283 -368 369 -369 296 -770 470 -1260 548 -96 15 -478 28 -555
19z"/>
<path d="M2375 2784 c-96 -24 -232 -96 -305 -161 -36 -33 -409 -369 -830 -747
-421 -379 -778 -701 -793 -716 l-28 -27 74 -99 c85 -114 249 -298 301 -337
l35 -28 720 863 c533 639 732 872 769 896 118 79 271 93 394 35 35 -17 78 -43
97 -58 18 -16 351 -409 739 -874 388 -466 709 -850 714 -856 17 -19 266 249
378 408 l34 48 -40 39 c-21 21 -401 366 -844 765 -524 473 -828 740 -870 765
-36 21 -101 51 -145 66 -69 24 -98 28 -210 31 -90 1 -149 -2 -190 -13z"/>
<path d="M2438 2205 c-54 -17 -134 -75 -182 -131 -35 -41 -1076 -1651 -1076
-1664 0 -11 119 -80 246 -143 151 -75 329 -141 491 -182 129 -32 291 -61 298
-53 1 2 33 307 69 678 37 371 72 698 77 727 20 101 93 165 189 165 81 -1 146
-50 174 -130 9 -25 41 -307 81 -710 36 -367 68 -682 71 -700 l5 -33 52 7 c182
21 467 107 673 201 133 61 316 163 311 175 -1 3 -236 370 -522 814 -301 467
-542 831 -573 865 -75 82 -160 123 -262 126 -45 2 -94 -3 -122 -12z"/>
</g>
</svg>
