<svg xmlns="http://www.w3.org/2000/svg" width="30.521" height="30.382" viewBox="0 0 30.521 30.382">
  <g id="Group_91" data-name="Group 91" transform="translate(-278 -1064)">
    <g id="Group_88" data-name="Group 88" transform="translate(-85 22)">
      <g id="Group_88-2" data-name="Group 88" transform="translate(363 1042)">
        <path id="Path_51" data-name="Path 51" d="M172.12,236.468l11.848,7.551a15.262,15.262,0,1,0-28.837,0l11.842-7.551A5.225,5.225,0,0,1,172.12,236.468Z" transform="translate(-154.288 -223.756)" fill="#001378"/>
        <path id="Path_52" data-name="Path 52" d="M183.871,308.214l8.313,10.026a15.261,15.261,0,0,0,2.424-2.812l-9.861-8.958a4.3,4.3,0,0,0-5.647,0l-9.863,8.956a15.329,15.329,0,0,0,2.426,2.812l8.313-10.024A2.443,2.443,0,0,1,183.871,308.214Z" transform="translate(-166.725 -291.69)" fill="#244027"/>
        <path id="Path_53" data-name="Path 53" d="M202.755,330.982a1.151,1.151,0,1,1,2.3,0l.827,8.32a15.185,15.185,0,0,0,6.269-2.288l-6.18-9.571c-1.137-1.76-3-1.76-4.137,0l-6.177,9.57a15.152,15.152,0,0,0,6.267,2.289Z" transform="translate(-188.707 -308.921)" fill="#244027"/>
      </g>
    </g>
  </g>
</svg>
