<svg data-name="Component 5 – 1" xmlns="http://www.w3.org/2000/svg" width="260.41" height="52.759"><path data-name="Rectangle 1" fill="#fff" d="M222.1 5.58h5.515v41.756H222.1z"/><path data-name="Path 1" d="M260.411 5.497h-27.272v5.515h10.881v36.241h5.513V11.015h10.881z" fill="#fff"/><path data-name="Path 2" d="M70.38 5.498a11.561 11.561 0 00-4.592.924 11.916 11.916 0 00-6.325 6.3 11.807 11.807 0 002.541 12.973 12.259 12.259 0 003.784 2.51 11.65 11.65 0 004.592.921l3.487.008a6.35 6.35 0 014.5 1.839 6.427 6.427 0 011.357 2.012 6.12 6.12 0 01.488 2.435 6.344 6.344 0 01-.488 2.474 6.286 6.286 0 01-3.392 3.39 6.322 6.322 0 01-2.469.483H58.537v5.494h15.331a11.534 11.534 0 004.594-.924 11.82 11.82 0 003.782-2.543 11.958 11.958 0 002.543-3.753 11.94 11.94 0 000-9.209 11.452 11.452 0 00-2.543-3.761 12.26 12.26 0 00-3.782-2.513 11.67 11.67 0 00-4.594-.921l-3.487-.005a6.369 6.369 0 01-4.5-1.842 6.419 6.419 0 01-1.357-2.01 6.132 6.132 0 01-.488-2.435 6.353 6.353 0 01.488-2.476 6.288 6.288 0 013.392-3.39 6.376 6.376 0 012.469-.482h15.31V5.498z" fill="#fff"/><path data-name="Path 3" d="M118.482 33.652a13.191 13.191 0 01-1.073 5.3 13.673 13.673 0 01-7.239 7.239 13.708 13.708 0 01-10.633 0 13.8 13.8 0 01-4.321-2.918 13.584 13.584 0 01-2.917-4.321 13.142 13.142 0 01-1.076-5.3V5.498h5.515v28.164a7.845 7.845 0 00.637 3.155 8.191 8.191 0 004.334 4.334 8.149 8.149 0 006.3 0 8.1 8.1 0 002.587-1.749 8.257 8.257 0 001.749-2.585 7.926 7.926 0 00.635-3.155V5.498h5.513z" fill="#fff"/><path data-name="Path 4" d="M166.574 12.968a12.186 12.186 0 00-2.626-3.88 12.35 12.35 0 00-3.887-2.621 12.312 12.312 0 00-9.568 0 12.39 12.39 0 00-3.89 2.621 11.569 11.569 0 00-.828.916c-.263-.32-.539-.624-.831-.916a12.4 12.4 0 00-3.885-2.621 11.877 11.877 0 00-4.8-.967 11.749 11.749 0 00-4.752.967 12.376 12.376 0 00-3.887 2.621 12.253 12.253 0 00-2.619 3.88 11.951 11.951 0 00-.98 4.778v29.511h5.513V17.728a6.542 6.542 0 01.529-2.618 6.853 6.853 0 011.45-2.146 6.766 6.766 0 012.146-1.45 6.741 6.741 0 015.234 0 6.725 6.725 0 012.149 1.45 6.817 6.817 0 011.449 2.146 6.492 6.492 0 01.526 2.618v29.529h5.515v-29.53a6.541 6.541 0 01.526-2.618 6.9 6.9 0 011.45-2.146 6.781 6.781 0 012.149-1.45 6.74 6.74 0 015.234 0 6.718 6.718 0 012.149 1.45 6.811 6.811 0 011.45 2.146 6.541 6.541 0 01.526 2.618l.013 29.529h5.512V17.727a11.806 11.806 0 00-.967-4.759z" fill="#fff"/><path data-name="Path 5" d="M215.602 12.968a12.183 12.183 0 00-2.623-3.88 12.376 12.376 0 00-3.887-2.621 12.319 12.319 0 00-9.571 0 12.375 12.375 0 00-3.887 2.621 11.532 11.532 0 00-.831.916 11.6 11.6 0 00-.831-.916 12.38 12.38 0 00-3.882-2.621 11.888 11.888 0 00-4.8-.967 11.759 11.759 0 00-4.754.967 12.3 12.3 0 00-6.506 6.5 11.94 11.94 0 00-.978 4.778v29.511h5.515V17.727a6.539 6.539 0 01.526-2.618 6.954 6.954 0 011.45-2.146 6.779 6.779 0 012.149-1.45 6.734 6.734 0 015.231 0 6.8 6.8 0 013.6 3.6 6.459 6.459 0 01.529 2.618V47.26h5.515V17.727a6.536 6.536 0 01.527-2.618 6.9 6.9 0 011.45-2.146 6.767 6.767 0 012.146-1.45 6.74 6.74 0 015.234 0 6.722 6.722 0 012.149 1.45 6.816 6.816 0 011.45 2.146 6.5 6.5 0 01.529 2.618l.01 29.529h5.508V17.727a11.8 11.8 0 00-.968-4.759z" fill="#fff"/><path data-name="Path 6" d="M30.966 22.074l20.575 13.112a26.5 26.5 0 10-50.076 0L22.03 22.074a9.073 9.073 0 018.936 0z" fill="#fff"/><path data-name="Path 7" d="M29.774 28.693l14.435 17.41a26.5 26.5 0 004.21-4.883L31.295 25.665a7.464 7.464 0 00-9.805 0L4.362 41.216a26.619 26.619 0 004.212 4.883l14.435-17.407a4.242 4.242 0 016.765.001z" fill="#fff"/><path data-name="Path 8" d="M24.396 38.31a2 2 0 114 0l1.437 14.449a26.368 26.368 0 0010.886-3.972L29.988 32.166c-1.974-3.057-5.208-3.057-7.184 0L12.078 48.784a26.309 26.309 0 0010.883 3.975z" fill="#fff"/></svg>