<?xml version="1.0" encoding="UTF-8"?>
<svg id="Component_4_1" data-name="Component 4 – 1" xmlns="http://www.w3.org/2000/svg" width="30.937" height="30.796" viewBox="0 0 30.937 30.796">
  <path id="Path_6" data-name="Path 6" d="M172.363,236.641l12.01,7.654a15.47,15.47,0,1,0-29.23,0l12-7.654A5.3,5.3,0,0,1,172.363,236.641Z" transform="translate(-154.288 -223.756)" fill="#0054a4"/>
  <path id="Path_7" data-name="Path 7" d="M184.07,308.252l8.426,10.162a15.467,15.467,0,0,0,2.457-2.85l-10-9.08a4.357,4.357,0,0,0-5.724,0l-10,9.078a15.537,15.537,0,0,0,2.459,2.85l8.426-10.161A2.476,2.476,0,0,1,184.07,308.252Z" transform="translate(-166.691 -291.503)" fill="#0054a4"/>
  <path id="Path_8" data-name="Path 8" d="M202.852,331.049a1.166,1.166,0,1,1,2.332,0l.839,8.434a15.392,15.392,0,0,0,6.354-2.319l-6.264-9.7c-1.152-1.784-3.04-1.784-4.194,0l-6.261,9.7a15.358,15.358,0,0,0,6.353,2.32Z" transform="translate(-188.612 -308.687)" fill="#0054a4"/>
</svg>
