<?xml version="1.0" encoding="UTF-8"?>
<svg id="Component_5_1" data-name="Component 5 – 1" xmlns="http://www.w3.org/2000/svg" width="260.41" height="52.759" viewBox="0 0 260.41 52.759">
  <rect id="Rectangle_1" data-name="Rectangle 1" width="5.515" height="41.756" transform="translate(222.1 5.58)" fill="#fff"/>
  <path id="Path_1" data-name="Path 1" d="M980.472,242.6H953.2v5.515h10.881v36.241h5.513V248.118h10.881Z" transform="translate(-720.061 -237.103)" fill="#fff"/>
  <path id="Path_2" data-name="Path 2" d="M366.725,242.6a11.561,11.561,0,0,0-4.592.924,11.916,11.916,0,0,0-6.325,6.3,11.807,11.807,0,0,0,2.541,12.973,12.259,12.259,0,0,0,3.784,2.51,11.65,11.65,0,0,0,4.592.921l3.487.008a6.35,6.35,0,0,1,4.5,1.839,6.427,6.427,0,0,1,1.357,2.012,6.12,6.12,0,0,1,.488,2.435,6.344,6.344,0,0,1-.488,2.474,6.286,6.286,0,0,1-3.392,3.39,6.322,6.322,0,0,1-2.469.483H354.882v5.494h15.331a11.534,11.534,0,0,0,4.594-.924,11.82,11.82,0,0,0,3.782-2.543,11.958,11.958,0,0,0,2.543-3.753,11.94,11.94,0,0,0,0-9.209,11.452,11.452,0,0,0-2.543-3.761,12.26,12.26,0,0,0-3.782-2.513,11.67,11.67,0,0,0-4.594-.921l-3.487-.005a6.369,6.369,0,0,1-4.5-1.842,6.419,6.419,0,0,1-1.357-2.01,6.132,6.132,0,0,1-.488-2.435,6.353,6.353,0,0,1,.488-2.476,6.288,6.288,0,0,1,3.392-3.39,6.376,6.376,0,0,1,2.469-.482h15.31V242.6Z" transform="translate(-296.345 -237.102)" fill="#fff"/>
  <path id="Path_3" data-name="Path 3" d="M494.151,270.754a13.191,13.191,0,0,1-1.073,5.3,13.673,13.673,0,0,1-7.239,7.239,13.708,13.708,0,0,1-10.633,0,13.8,13.8,0,0,1-4.321-2.918,13.584,13.584,0,0,1-2.917-4.321,13.142,13.142,0,0,1-1.076-5.3V242.6h5.515v28.164a7.845,7.845,0,0,0,.637,3.155,8.191,8.191,0,0,0,4.334,4.334,8.149,8.149,0,0,0,6.3,0,8.1,8.1,0,0,0,2.587-1.749,8.257,8.257,0,0,0,1.749-2.585,7.926,7.926,0,0,0,.635-3.155l0-28.164h5.513Z" transform="translate(-375.669 -237.102)" fill="#fff"/>
  <path id="Path_4" data-name="Path 4" d="M621.822,250.07a12.186,12.186,0,0,0-2.626-3.88,12.35,12.35,0,0,0-3.887-2.621,12.312,12.312,0,0,0-9.568,0,12.39,12.39,0,0,0-3.89,2.621,11.569,11.569,0,0,0-.828.916c-.263-.32-.539-.624-.831-.916a12.4,12.4,0,0,0-3.885-2.621,11.877,11.877,0,0,0-4.8-.967,11.749,11.749,0,0,0-4.752.967,12.376,12.376,0,0,0-3.887,2.621,12.253,12.253,0,0,0-2.619,3.88,11.951,11.951,0,0,0-.98,4.778l0,29.511h5.513l0-29.529a6.542,6.542,0,0,1,.529-2.618,6.853,6.853,0,0,1,1.45-2.146,6.766,6.766,0,0,1,2.146-1.45,6.741,6.741,0,0,1,5.234,0,6.725,6.725,0,0,1,2.149,1.45,6.817,6.817,0,0,1,1.449,2.146,6.492,6.492,0,0,1,.526,2.618v29.529h5.515V254.829a6.541,6.541,0,0,1,.526-2.618,6.9,6.9,0,0,1,1.45-2.146,6.781,6.781,0,0,1,2.149-1.45,6.74,6.74,0,0,1,5.234,0,6.718,6.718,0,0,1,2.149,1.45,6.811,6.811,0,0,1,1.45,2.146,6.541,6.541,0,0,1,.526,2.618l.013,29.529h5.512V254.829A11.806,11.806,0,0,0,621.822,250.07Z" transform="translate(-455.248 -237.102)" fill="#fff"/>
  <path id="Path_5" data-name="Path 5" d="M789.832,250.07a12.183,12.183,0,0,0-2.623-3.88,12.376,12.376,0,0,0-3.887-2.621,12.319,12.319,0,0,0-9.571,0,12.375,12.375,0,0,0-3.887,2.621,11.532,11.532,0,0,0-.831.916,11.6,11.6,0,0,0-.831-.916,12.38,12.38,0,0,0-3.882-2.621,11.888,11.888,0,0,0-4.8-.967,11.759,11.759,0,0,0-4.754.967,12.3,12.3,0,0,0-6.506,6.5,11.94,11.94,0,0,0-.978,4.778l0,29.511h5.515l0-29.529a6.539,6.539,0,0,1,.526-2.618,6.954,6.954,0,0,1,1.45-2.146,6.779,6.779,0,0,1,2.149-1.45,6.734,6.734,0,0,1,5.231,0,6.8,6.8,0,0,1,3.6,3.6,6.459,6.459,0,0,1,.529,2.618v29.529h5.515V254.829a6.536,6.536,0,0,1,.527-2.618,6.9,6.9,0,0,1,1.45-2.146,6.767,6.767,0,0,1,2.146-1.45,6.74,6.74,0,0,1,5.234,0,6.722,6.722,0,0,1,2.149,1.45,6.816,6.816,0,0,1,1.45,2.146,6.5,6.5,0,0,1,.529,2.618l.01,29.529H790.8V254.829A11.8,11.8,0,0,0,789.832,250.07Z" transform="translate(-574.23 -237.102)" fill="#fff"/>
  <path id="Path_6" data-name="Path 6" d="M185.254,245.83l20.575,13.112a26.5,26.5,0,1,0-50.076,0l20.565-13.112A9.073,9.073,0,0,1,185.254,245.83Z" transform="translate(-154.288 -223.756)" fill="#fff"/>
  <path id="Path_7" data-name="Path 7" d="M194.649,310.277l14.435,17.41a26.5,26.5,0,0,0,4.21-4.883l-17.124-15.555a7.464,7.464,0,0,0-9.805,0L169.237,322.8a26.619,26.619,0,0,0,4.212,4.883l14.435-17.407A4.242,4.242,0,0,1,194.649,310.277Z" transform="translate(-164.875 -281.584)" fill="#fff"/>
  <path id="Path_8" data-name="Path 8" d="M207.982,334.561a2,2,0,1,1,4,0l1.437,14.449a26.368,26.368,0,0,0,10.886-3.972l-10.731-16.621c-1.974-3.057-5.208-3.057-7.184,0l-10.726,16.618a26.309,26.309,0,0,0,10.883,3.975Z" transform="translate(-183.586 -296.251)" fill="#fff"/>
</svg>
